<svg width="59" height="59" viewBox="0 0 59 59" fill="none" xmlns="http://www.w3.org/2000/svg">
<path d="M29.0771 58.1543C45.136 58.1543 58.1543 45.136 58.1543 29.0771C58.1543 13.0183 45.136 0 29.0771 0C13.0183 0 0 13.0183 0 29.0771C0 45.136 13.0183 58.1543 29.0771 58.1543Z" fill="#007A95"/>
<path d="M44.7804 15H13.652C11.0828 15 9 17.0828 9 19.652V39.423C9 41.9922 11.0828 44.075 13.652 44.075H44.7804C47.3497 44.075 49.4324 41.9922 49.4324 39.423V19.652C49.4324 17.0828 47.3497 15 44.7804 15Z" fill="white"/>
<path d="M49.4324 15L30.6927 33.6262C29.8977 34.5348 28.5348 34.5348 27.7397 33.6262L9 15M9 44.075L23.6511 29.5375M49.4324 44.075L34.7813 29.5375" stroke="#007A95" stroke-width="5.26956"/>
</svg>
