<svg width="67" height="66" viewBox="0 0 67 66" fill="none" xmlns="http://www.w3.org/2000/svg">
<path d="M33.114 66C51.3394 66 66.114 51.2254 66.114 33C66.114 14.7746 51.3394 0 33.114 0C14.8886 0 0.114014 14.7746 0.114014 33C0.114014 51.2254 14.8886 66 33.114 66Z" fill="#3C5A99"/>
<path d="M35.6791 49.5V34.4695H40.7451L41.5056 28.5849H35.6791V24.8402C35.6791 23.1386 36.1496 21.9849 38.5859 21.9849H41.6732V16.7384C41.1382 16.6675 39.2949 16.5064 37.1486 16.5064C32.6691 16.5064 29.6011 19.2392 29.6011 24.2601V28.5914H24.5544V34.4759H29.6011V49.5H35.6791Z" fill="white"/>
</svg>
