<svg width="66" height="66" viewBox="0 0 66 66" fill="none" xmlns="http://www.w3.org/2000/svg">
<path d="M33 66C51.2254 66 66 51.2254 66 33C66 14.7746 51.2254 0 33 0C14.7746 0 0 14.7746 0 33C0 51.2254 14.7746 66 33 66Z" fill="#E4405F"/>
<path d="M33.0001 16.5C28.5207 16.5 27.9599 16.5193 26.2003 16.5967C24.4408 16.6805 23.2484 16.9576 22.1978 17.3637C21.115 17.7826 20.1933 18.3498 19.2716 19.265C18.35 20.1803 17.7892 21.102 17.3703 22.1912C16.9642 23.2418 16.6871 24.4406 16.6033 26.1937C16.5195 27.9533 16.5066 28.5141 16.5066 32.9936C16.5066 37.473 16.5259 38.0338 16.6033 39.7934C16.6871 41.5465 16.9642 42.7453 17.3703 43.7959C17.7892 44.8787 18.3564 45.8004 19.2716 46.7221C20.1869 47.6373 21.1085 48.2045 22.1978 48.6234C23.2484 49.0295 24.4472 49.3066 26.2003 49.3904C27.9599 49.4742 28.5207 49.4871 33.0001 49.4871C37.4796 49.4871 38.0404 49.4678 39.8 49.3904C41.5531 49.3066 42.7519 49.0295 43.8025 48.6234C44.8853 48.2045 45.807 47.6373 46.7287 46.7221C47.6439 45.8068 48.2111 44.8852 48.63 43.7959C49.0361 42.7453 49.3132 41.5465 49.397 39.7934C49.4808 38.0338 49.4937 37.473 49.4937 32.9936C49.4937 28.5141 49.4744 27.9533 49.397 26.1937C49.3132 24.4406 49.0361 23.2418 48.63 22.1912C48.2111 21.1084 47.6439 20.1867 46.7287 19.265C45.8134 18.3498 44.8917 17.7826 43.8025 17.3637C42.7519 16.9576 41.5531 16.6805 39.8 16.5967C38.0404 16.5193 37.4796 16.5 33.0001 16.5ZM33.0001 19.4713C37.4023 19.4713 37.9308 19.4906 39.671 19.568C41.2824 19.6453 42.1525 19.9096 42.7326 20.1416C43.506 20.4381 44.0539 20.799 44.6339 21.3727C45.2076 21.9527 45.5685 22.5006 45.865 23.274C46.0906 23.8541 46.3613 24.7242 46.4322 26.3355C46.5095 28.0758 46.5289 28.5978 46.5289 33.0064C46.5289 37.415 46.5095 37.9371 46.4257 39.6773C46.3419 41.2887 46.0712 42.1588 45.8457 42.7389C45.5363 43.5123 45.1882 44.0602 44.6082 44.6402C44.0345 45.2139 43.4738 45.5748 42.7132 45.8713C42.1332 46.0969 41.2501 46.3676 39.6388 46.4385C37.8857 46.5158 37.3701 46.5352 32.955 46.5352C28.54 46.5352 28.0244 46.5158 26.2712 46.432C24.6599 46.3482 23.7769 46.0775 23.1968 45.852C22.4169 45.5426 21.8755 45.1945 21.3019 44.6145C20.7218 44.0408 20.3544 43.4801 20.0644 42.7195C19.8388 42.1395 19.5681 41.2564 19.4843 39.6451C19.4199 37.9113 19.4005 37.3764 19.4005 32.9871C19.4005 28.5914 19.4199 28.0564 19.4843 26.3033C19.5681 24.692 19.8324 23.809 20.0644 23.2289C20.3544 22.4426 20.7218 21.9076 21.3019 21.3275C21.8755 20.7539 22.4169 20.3801 23.1968 20.09C23.7769 19.8645 24.6406 19.5938 26.2519 19.51C28.005 19.4455 28.5207 19.4262 32.9357 19.4262L33.0001 19.4713ZM33.0001 24.5244C28.3208 24.5244 24.5246 28.3207 24.5246 33C24.5246 37.6793 28.3208 41.4756 33.0001 41.4756C37.6794 41.4756 41.4757 37.6793 41.4757 33C41.4757 28.3207 37.6794 24.5244 33.0001 24.5244ZM33.0001 38.4979C29.9644 38.4979 27.5023 36.0357 27.5023 33C27.5023 29.9643 29.9644 27.5021 33.0001 27.5021C36.0359 27.5021 38.498 29.9643 38.498 33C38.498 36.0357 36.0359 38.4979 33.0001 38.4979ZM43.7896 24.1957C43.7896 25.2914 42.9001 26.1744 41.8109 26.1744C40.7152 26.1744 39.8322 25.285 39.8322 24.1957C39.8322 23.1064 40.7216 22.217 41.8109 22.217C42.9001 22.2105 43.7896 23.1 43.7896 24.1957Z" fill="white"/>
</svg>
