<?xml version="1.0" encoding="iso-8859-1"?>
<!-- Uploaded to: SVG Repo, www.svgrepo.com, Generator: SVG Repo Mixer Tools -->
<!DOCTYPE svg PUBLIC "-//W3C//DTD SVG 1.1//EN" "http://www.w3.org/Graphics/SVG/1.1/DTD/svg11.dtd">
<svg fill="#000000" version="1.1" id="Capa_1" xmlns="http://www.w3.org/2000/svg" xmlns:xlink="http://www.w3.org/1999/xlink" 
	 width="800px" height="800px" viewBox="0 0 445.849 445.849"
	 xml:space="preserve">
<g>
	<g>
		<path d="M303.236,445.849c21.662,0,39.278-17.621,39.278-39.288V39.289C342.515,17.625,324.898,0,303.236,0H142.612
			c-21.66,0-39.278,17.618-39.278,39.289v367.272c0,21.662,17.618,39.288,39.278,39.288H303.236z M246.018,11.86l-0.224,0.576
			c-0.294,0.774-1.432,1.546-2.249,1.546h-40.774c-0.861,0-2.077-0.812-2.41-1.602l-0.221-0.521H246.018z M115.184,406.566V39.289
			c0-15.13,12.309-27.437,27.429-27.437h51.097l1.186,2.818c1.257,2.979,4.639,5.23,7.876,5.23h40.774
			c3.275,0,6.626-2.313,7.789-5.38l1.011-2.678h50.892c15.127,0,27.426,12.309,27.426,27.438v367.27
			c0,15.127-12.304,27.437-27.426,27.437H142.612C127.492,433.997,115.184,421.698,115.184,406.566z"/>
		<path d="M265.212,23.897h6.028c1.919,0,3.468-1.557,3.468-3.474c0-1.911-1.554-3.471-3.468-3.471h-6.028
			c-1.919,0-3.473,1.56-3.473,3.471C261.739,22.34,263.303,23.897,265.212,23.897z"/>
		<path d="M290.46,14.553c3.245,0,5.87,2.628,5.87,5.87c0,3.24-2.625,5.868-5.87,5.868c-3.239,0-5.87-2.628-5.87-5.868
			C284.59,17.181,287.221,14.553,290.46,14.553z"/>
		<path d="M321.578,400.249V48.695c0-1.635-1.326-2.96-2.961-2.96H127.231c-1.635,0-2.96,1.325-2.96,2.96v351.553
			c0,1.636,1.325,2.961,2.96,2.961h191.396C320.258,403.209,321.578,401.884,321.578,400.249z M315.657,397.283H130.194V51.659
			h185.468v345.624H315.657z"/>
	</g>
</g>
</svg>