<svg width="59" height="59" viewBox="0 0 59 59" fill="none" xmlns="http://www.w3.org/2000/svg">
<path d="M29.0771 58.1543C45.136 58.1543 58.1543 45.136 58.1543 29.0771C58.1543 13.0183 45.136 0 29.0771 0C13.0183 0 0 13.0183 0 29.0771C0 45.136 13.0183 58.1543 29.0771 58.1543Z" fill="#007A95"/>
<path opacity="0.2" d="M26.3512 22.9891C25.9877 18.6275 21.4444 16.5376 21.2627 16.4468C20.9901 16.3559 20.8083 16.3559 20.6266 16.3559C15.3564 17.2646 14.6294 20.2631 14.5386 20.4449V20.9901C20.8083 40.4354 33.8022 43.9792 38.0729 45.1604C38.4364 45.2513 38.709 45.3422 38.8907 45.433C38.9816 45.433 39.0724 45.5239 39.1633 45.5239C39.345 45.5239 39.4359 45.5239 39.6176 45.433C39.7085 45.3422 42.7979 43.8883 43.6157 39.1633C43.6157 38.9816 43.6157 38.709 43.5249 38.5272C43.434 38.4364 41.7984 35.3469 37.346 34.2565C37.0734 34.1656 36.7099 34.2565 36.4373 34.4382C34.9834 35.6195 33.0753 36.8916 32.2575 37.0734C26.6238 34.3474 23.4435 28.9863 23.3526 27.9868C23.2617 27.4416 24.5338 25.4425 26.0786 23.8069C26.2603 23.6252 26.3512 23.2617 26.3512 22.9891Z" fill="#231F20"/>
<path d="M26.3512 21.1718C25.9877 16.8102 21.4444 14.7203 21.2627 14.6294C20.9901 14.5386 20.8083 14.5386 20.6266 14.5386C15.3564 15.4472 14.6294 18.4458 14.5386 18.6275V19.1727C20.8083 38.6181 33.8022 42.1619 38.0729 43.3431C38.4364 43.434 38.709 43.5249 38.8907 43.6157C38.9816 43.6157 39.0724 43.7066 39.1633 43.7066C39.345 43.7066 39.4359 43.7066 39.6176 43.6157C39.7085 43.5249 42.7979 42.071 43.6157 37.346C43.6157 37.1642 43.6157 36.8916 43.5249 36.7099C43.434 36.619 41.7984 33.5296 37.346 32.4392C37.0734 32.3483 36.7099 32.4392 36.4373 32.6209C34.9834 33.8022 33.0753 35.0743 32.2575 35.256C26.6238 32.5301 23.4435 27.169 23.3526 26.1694C23.2617 25.6242 24.5338 23.6252 26.0786 21.9896C26.2603 21.8079 26.3512 21.4444 26.3512 21.1718Z" fill="white"/>
</svg>
