<svg width="67" height="66" viewBox="0 0 67 66" fill="none" xmlns="http://www.w3.org/2000/svg">
<path d="M30.143 0C13.742 0 0.442993 13.299 0.442993 29.7C0.442993 46.101 13.742 59.4 30.143 59.4C46.544 59.4 59.843 46.101 59.843 29.7C59.843 13.299 46.544 0 30.143 0ZM4.10599 31.944H12.389C12.521 34.947 12.9401 37.9302 13.643 40.854H6.51499C5.18509 38.049 4.36999 35.0328 4.10599 31.944ZM32.387 14.124V3.927C35.5682 5.1348 38.1818 7.491 39.713 10.527C40.3895 11.6721 40.9868 12.8634 41.495 14.091L32.387 14.124ZM43.013 18.579C43.7786 21.4929 44.234 24.4794 44.366 27.489H32.387V18.579H43.013ZM27.899 3.927V14.124H18.791C19.2992 12.8964 19.8965 11.7051 20.573 10.56C22.0976 7.5108 24.7145 5.148 27.899 3.927ZM27.899 18.579V27.489H15.953C16.085 24.4794 16.5404 21.4929 17.306 18.579H27.899ZM12.389 27.456H4.10599C4.36999 24.3672 5.18509 21.351 6.51499 18.546H13.643C12.9401 21.4698 12.521 24.453 12.389 27.456ZM15.953 31.944H27.899V40.854H17.306C16.5404 37.9401 16.085 34.9536 15.953 31.944ZM27.932 45.144V55.341C24.7508 54.1332 22.1372 51.777 20.606 48.741C19.9295 47.5959 19.3322 46.4046 18.824 45.177L27.932 45.144ZM32.387 55.341V45.309H41.495C40.9868 46.5366 40.3895 47.7279 39.713 48.873C38.1818 51.909 35.5682 54.2652 32.387 55.473V55.341ZM32.387 40.689V31.779H44.333C44.201 34.7886 43.7456 37.7751 42.98 40.689H32.387ZM47.93 31.779H56.213C55.949 34.8678 55.1339 37.884 53.804 40.689H46.643C47.336 37.818 47.7551 34.8909 47.897 31.944L47.93 31.779ZM47.93 27.324C47.7782 24.3738 47.3492 21.45 46.643 18.579H53.771C55.1009 21.384 55.916 24.4002 56.18 27.489L47.93 27.324ZM51.23 14.124H45.323C44.2538 11.121 42.7061 8.316 40.736 5.808C44.8412 7.656 48.4085 10.5138 51.098 14.124H51.23ZM19.55 5.808C17.5799 8.316 16.0322 11.121 14.963 14.124H9.18799C11.8775 10.5138 15.4448 7.656 19.55 5.808ZM9.15499 45.408H14.963C16.0322 48.411 17.5799 51.216 19.55 53.724C15.4316 51.8529 11.861 48.9555 9.18799 45.309L9.15499 45.408ZM40.703 53.724C42.6731 51.216 44.2208 48.411 45.29 45.408H51.098C48.392 48.972 44.828 51.7869 40.736 53.592L40.703 53.724Z" fill="#007A95"/>
</svg>
