<svg width="62" height="66" viewBox="0 0 62 66" fill="none" xmlns="http://www.w3.org/2000/svg">
<path d="M11.5263 42.6272C11.923 39.3427 13.2701 37.5039 15.8085 35.6188C19.4408 33.0656 23.9778 34.5098 23.9778 34.5098V25.9422C25.081 25.9138 26.1845 25.9793 27.2752 26.1374V37.1632C27.2752 37.1632 22.7395 35.7191 19.1075 38.2735C16.5703 40.1573 15.2204 41.9977 14.8251 45.2822C14.8127 47.0657 15.1474 49.397 16.6889 51.4128C16.3076 51.2174 15.9192 50.9948 15.5235 50.745C12.1282 48.4649 11.5098 45.0446 11.5263 42.6272ZM46.0093 10.1004C43.5107 7.36249 42.5656 4.59811 42.2242 2.65619H45.3673C45.3673 2.65619 44.7406 7.74795 49.308 12.7553L49.3715 12.8226C48.1403 12.0482 47.0115 11.1343 46.0093 10.1004ZM61.1507 17.8628V28.6668C61.1507 28.6668 57.1399 28.5099 54.1717 27.7547C50.0269 26.6984 47.3631 25.0786 47.3631 25.0786C47.3631 25.0786 45.5229 23.9237 45.3742 23.8432V46.1534C45.3742 47.3957 45.034 50.498 43.9968 53.0854C42.6428 56.4705 40.5534 58.6921 40.1691 59.1462C40.1691 59.1462 37.6278 62.1495 33.1444 64.1721C29.1032 65.9965 25.5549 65.9503 24.4944 65.9965C24.4944 65.9965 18.3609 66.2395 12.8417 62.6526C11.6482 61.8619 10.5341 60.9666 9.51392 59.9778L9.54148 59.9976C15.062 63.5845 21.1941 63.3416 21.1941 63.3416C22.2562 63.2954 25.8042 63.3416 29.8442 61.5172C34.3235 59.4948 36.8688 56.4915 36.8688 56.4915C37.2491 56.0374 39.3481 53.8155 40.6966 50.4294C41.731 47.8433 42.0739 44.7395 42.0739 43.4974V21.1897C42.2227 21.2715 44.0615 22.4265 44.0615 22.4265C44.0615 22.4265 46.7269 24.0478 50.8715 25.1025C53.8409 25.8577 57.8507 26.0148 57.8507 26.0148V17.5487C59.2225 17.8562 60.3919 17.9395 61.1507 17.8628Z" fill="#EE1D52"/>
<path d="M57.8529 17.5487V26.012C57.8529 26.012 53.8432 25.8549 50.8737 25.1C46.7292 24.0437 44.0638 22.4239 44.0638 22.4239C44.0638 22.4239 42.2249 21.2689 42.0762 21.1869V43.5C42.0762 44.7423 41.736 47.8458 40.6988 50.432C39.3448 53.8183 37.2554 56.0399 36.8711 56.4941C36.8711 56.4941 34.3286 59.4973 29.8464 61.52C25.8065 63.3443 22.2585 63.2981 21.1964 63.3443C21.1964 63.3443 15.0643 63.5873 9.54371 60.0004L9.51617 59.9806C8.93332 59.4161 8.38468 58.8203 7.87295 58.1958C6.11126 56.0478 5.03141 53.5078 4.76005 52.7831C4.75959 52.7801 4.75959 52.777 4.76005 52.774C4.32343 51.5146 3.40608 48.4901 3.53143 45.5607C3.75319 40.3924 5.57133 37.2201 6.05204 36.4253C7.32515 34.2582 8.98101 32.3191 10.9459 30.6947C12.6798 29.2927 14.6451 28.1773 16.7612 27.3942C19.0488 26.4748 21.4984 25.9818 23.9788 25.9422V34.5098C23.9788 34.5098 19.4415 33.071 15.8108 35.6188C13.2723 37.5039 11.9252 39.3427 11.5285 42.6272C11.512 45.0446 12.1305 48.4649 15.5229 50.7462C15.9187 50.997 16.307 51.2197 16.6883 51.4141C17.2808 52.1845 18.0022 52.856 18.8232 53.401C22.1371 55.4987 24.9139 55.6452 28.465 54.2828C30.8326 53.372 32.6148 51.3192 33.4414 49.0445C33.9607 47.6242 33.9539 46.1943 33.9539 44.7159V2.65619H42.2181C42.5598 4.59811 43.5046 7.36249 46.0032 10.1004C47.0054 11.1343 48.1345 12.0482 49.3654 12.8226C49.7291 13.1988 51.5885 15.0589 53.9755 16.2008C55.2096 16.7911 56.5109 17.2433 57.8529 17.5487Z" fill="black"/>
<path d="M1.46973 50.1518V50.1584L1.67478 50.7143C1.65123 50.6496 1.57502 50.4529 1.46973 50.1518Z" fill="#69C9D0"/>
<path d="M16.7602 27.394C14.6442 28.1774 12.6789 29.2927 10.9449 30.6945C8.97945 32.3226 7.32399 34.2658 6.05248 36.437C5.57177 37.2292 3.75363 40.4041 3.53187 45.5724C3.40652 48.5018 4.32387 51.5263 4.76048 52.7856C4.76003 52.7887 4.76003 52.7917 4.76048 52.7948C5.03596 53.5132 6.1117 56.0529 7.87339 58.2075C8.38512 58.832 8.93375 59.428 9.51661 59.9923C7.64914 58.7543 5.98364 57.2579 4.57454 55.5513C2.82801 53.422 1.75089 50.9085 1.46991 50.1665C1.46958 50.1611 1.46958 50.1558 1.46991 50.1507V50.1413C1.0319 48.8833 0.111807 45.8574 0.239898 42.9243C0.461657 37.756 2.27983 34.5837 2.76053 33.7889C4.03167 31.6172 5.68717 29.674 7.653 28.0464C9.38654 26.6439 11.3519 25.5285 13.4683 24.7459C14.7884 24.2209 16.1637 23.8338 17.5703 23.5909C19.6899 23.2362 21.8549 23.2053 23.9847 23.4997V25.942C21.5021 25.9808 19.0499 26.4738 16.7602 27.394Z" fill="#69C9D0"/>
<path d="M42.2233 2.65611H33.9589V44.7172C33.9589 46.1956 33.9589 47.6214 33.4466 49.0458C32.612 51.3192 30.8363 53.3718 28.47 54.2828C24.9179 55.6506 22.1411 55.4988 18.8284 53.401C18.006 52.8583 17.2827 52.1891 16.688 51.4207C19.5102 52.8636 22.0363 52.8385 25.1657 51.6347C27.5307 50.7237 29.3089 48.6708 30.1408 46.3964C30.6614 44.9758 30.6546 43.5462 30.6546 42.0688V0H42.0662C42.0662 0 41.9383 1.04554 42.2233 2.65611ZM57.8511 15.208V17.5486C56.5115 17.2428 55.2129 16.7905 53.9807 16.2008C51.5938 15.0588 49.7341 13.1988 49.3706 12.8225C49.7925 13.088 50.2304 13.3296 50.6817 13.5459C53.5839 14.9347 56.442 15.3493 57.8511 15.208Z" fill="#69C9D0"/>
</svg>
