<svg width="67" height="66" viewBox="0 0 67 66" fill="none" xmlns="http://www.w3.org/2000/svg">
<path d="M33.3291 66C51.5545 66 66.3291 51.2254 66.3291 33C66.3291 14.7746 51.5545 0 33.3291 0C15.1037 0 0.329102 14.7746 0.329102 33C0.329102 51.2254 15.1037 66 33.3291 66Z" fill="#1DA1F2"/>
<path d="M50.4737 22.8679C49.262 23.4029 47.9665 23.7638 46.6001 23.9314C47.9923 23.0935 49.0622 21.7722 49.5649 20.1996C48.263 20.9601 46.8128 21.5144 45.2788 21.8238C44.0478 20.509 42.3011 19.684 40.3546 19.684C36.6292 19.684 33.6063 22.7068 33.6063 26.4258C33.6063 26.9607 33.6708 27.4763 33.7804 27.9662C28.1729 27.7019 23.1972 25.0078 19.8714 20.9344C19.2849 21.9269 18.9562 23.0742 18.9562 24.331C18.9562 26.6771 20.1485 28.7396 21.9597 29.9513C20.8511 29.9127 19.8134 29.6097 18.9046 29.107V29.1908C18.9046 32.465 21.2249 35.1914 24.3187 35.8101C23.7515 35.9648 23.1521 36.0422 22.5397 36.0422C22.1079 36.0422 21.6954 36.0035 21.2829 35.9261C22.1466 38.6074 24.6345 40.5603 27.5993 40.6119C25.2983 42.423 22.3722 43.4994 19.2333 43.4994C18.6983 43.4994 18.1634 43.4672 17.6284 43.4092C20.6319 45.3234 24.1704 46.4385 27.9925 46.4385C40.3997 46.4385 47.1866 36.1582 47.1866 27.2572C47.1866 26.9736 47.1866 26.6836 47.1673 26.3935C48.4821 25.4461 49.6358 24.2537 50.5382 22.9002L50.4737 22.8679Z" fill="white"/>
</svg>
