<svg width="67" height="47" viewBox="0 0 67 47" fill="none" xmlns="http://www.w3.org/2000/svg">
<path d="M26.7507 31.7878L44.5914 22.5581L26.7507 13.2511V31.7878Z" fill="white"/>
<path opacity="0.12" d="M26.7507 13.2511L42.4 23.6925L44.5914 22.5581L26.7507 13.2511Z" fill="#420000"/>
<path d="M65.8611 10.0285C65.8611 10.0285 65.2168 5.49095 63.2324 3.48002C60.7326 0.850329 57.9235 0.850329 56.6092 0.695642C47.4089 0.0253296 33.5698 0.0253296 33.5698 0.0253296H33.544C33.544 0.0253296 19.7049 0.0253296 10.453 0.695642C9.16446 0.850329 6.3554 0.850329 3.82982 3.48002C1.87121 5.49095 1.22694 10.0285 1.22694 10.0285C1.22694 10.0285 0.556885 15.391 0.556885 20.7277V25.7292C0.556885 31.066 1.22694 36.4027 1.22694 36.4027C1.22694 36.4027 1.87122 40.9402 3.8556 42.9511C6.3554 45.5808 9.65411 45.5034 11.1231 45.7613C16.4062 46.2769 33.544 46.4316 33.544 46.4316C33.544 46.4316 47.4089 46.4058 56.635 45.7355C57.9235 45.5808 60.7326 45.5808 63.2582 42.9511C65.2426 40.9402 65.8868 36.4027 65.8868 36.4027C65.8868 36.4027 66.5569 31.066 66.5569 25.7292V20.7277C66.5311 15.391 65.8611 10.0285 65.8611 10.0285ZM26.7404 31.7878V13.2511L44.5741 22.5581L26.7404 31.7878Z" fill="url(#paint0_linear_86_264)"/>
<defs>
<linearGradient id="paint0_linear_86_264" x1="8445.26" y1="0.0254131" x2="8445.26" y2="8355.67" gradientUnits="userSpaceOnUse">
<stop stop-color="#E52D27"/>
<stop offset="1" stop-color="#BF171D"/>
</linearGradient>
</defs>
</svg>
